<?xml version="1.0" encoding="UTF-8"?>
<svg width="21px" height="20px" viewBox="0 0 21 20" version="1.1" xmlns="http://www.w3.org/2000/svg" xmlns:xlink="http://www.w3.org/1999/xlink">
    <!-- Generator: Sketch 42 (36781) - http://www.bohemiancoding.com/sketch -->
    <title>linkedin-logo</title>
    <desc>Created with Sketch.</desc>
    <defs></defs>
    <g id="Page-1" stroke="none" stroke-width="1" fill="none" fill-rule="evenodd">
        <g id="BetterDesk-Copy-3" transform="translate(-1206.000000, -3779.000000)" fill-rule="nonzero" fill="#FFFFFF">
            <g id="linkedin-logo" transform="translate(1206.000000, 3779.000000)">
                <g id="Capa_1">
                    <path d="M20.879466,12.2593689 L20.879466,19.9786408 L16.4043204,19.9786408 L16.4043204,12.7763592 C16.4043204,10.9670874 15.7570388,9.7323301 14.1371845,9.7323301 C12.9006311,9.7323301 12.1647573,10.564466 11.8410194,11.3694175 C11.7229612,11.6571845 11.6925728,12.0577184 11.6925728,12.460534 L11.6925728,19.9786408 L7.21592233,19.9786408 C7.21592233,19.9786408 7.27621359,7.78033981 7.21592233,6.51650485 L11.6921359,6.51650485 L11.6921359,8.42470874 C11.6830583,8.43898058 11.6712621,8.45436893 11.6627184,8.46820388 L11.6921359,8.46820388 L11.6921359,8.42470874 C12.2868447,7.50873786 13.348932,6.20024272 15.7262136,6.20024272 C18.6715049,6.20019417 20.879466,8.12432039 20.879466,12.2593689 Z M2.53315534,0.0270873786 C1.00169903,0.0270873786 0,1.03160194 0,2.35257282 C0,3.64475728 0.972718447,4.67975728 2.47373786,4.67975728 L2.50364078,4.67975728 C4.06475728,4.67975728 5.03563107,3.64495146 5.03563107,2.35257282 C5.00621359,1.03160194 4.06475728,0.0270873786 2.53315534,0.0270873786 Z M0.265873786,19.9786408 L4.74082524,19.9786408 L4.74082524,6.51650485 L0.265873786,6.51650485 L0.265873786,19.9786408 Z" id="LinkedIn"></path>
                </g>
            </g>
        </g>
    </g>
</svg>