<?xml version="1.0" encoding="UTF-8"?>
<svg width="30px" height="20px" viewBox="0 0 30 20" version="1.1" xmlns="http://www.w3.org/2000/svg" xmlns:xlink="http://www.w3.org/1999/xlink">
    <!-- Generator: Sketch 42 (36781) - http://www.bohemiancoding.com/sketch -->
    <title>twitter-logo</title>
    <desc>Created with Sketch.</desc>
    <defs></defs>
    <g id="Page-1" stroke="none" stroke-width="1" fill="none" fill-rule="evenodd">
        <g id="BetterDesk-Copy-3" transform="translate(-1154.000000, -3779.000000)" fill-rule="nonzero" fill="#FFFFFF">
            <g id="twitter-logo" transform="translate(1154.723688, 3779.000000)">
                <g id="Capa_1">
                    <path d="M25.5962416,8.90194631 C27.2175168,8.76818792 28.3172483,8.03114094 28.7404698,7.03107383 C28.1556376,7.39033557 26.3402013,7.78201342 25.3375839,7.40899329 C25.2884564,7.17342282 25.233557,6.94966443 25.1796644,6.74765101 C24.4157047,3.94241611 21.8,1.68241611 19.0592617,1.95543624 C19.2810067,1.86590604 19.505906,1.78255034 19.7301342,1.70771812 C20.0318121,1.59966443 21.8018121,1.31167785 21.5230872,0.686912752 C21.2881879,0.13738255 19.1256376,1.10221477 18.7184564,1.22832215 C19.2559732,1.0261745 20.1448993,0.678456376 20.2401342,0.0608053691 C19.4166443,0.173758389 18.608255,0.563087248 17.9836242,1.12919463 C18.2091275,0.886442953 18.3802013,0.590604027 18.4165101,0.272214765 C16.2201342,1.67536913 14.9371141,4.50422819 13.8987919,7.24832215 C13.0834899,6.45818792 12.3608725,5.83597315 11.7126174,5.4904698 C9.89402685,4.5152349 7.71959732,3.49771812 4.30624161,2.23060403 C4.20147651,3.35993289 4.8647651,4.86154362 6.77604027,5.86013423 C6.36194631,5.80469799 5.60469799,5.92838926 4.9990604,6.07342282 C5.2457047,7.36718121 6.05120805,8.43308725 8.23187919,8.94852349 C7.23530201,9.0142953 6.72026846,9.24107383 6.25348993,9.72986577 C6.70738255,10.6296644 7.81496644,11.6886577 9.80738255,11.4712752 C7.59221477,12.4260403 8.90416107,14.1941611 10.7066443,13.9304698 C7.63174497,17.1065101 2.7838255,16.8730872 0,14.2166443 C7.26838926,24.1208054 23.0681879,20.0739597 25.4227517,10.5343624 C27.1868456,10.549396 28.2238926,9.92328859 28.8669128,9.23302013 C27.8505369,9.40550336 26.3773826,9.22724832 25.5962416,8.90194631 Z" id="Twitter__x28_alt_x29_"></path>
                </g>
            </g>
        </g>
    </g>
</svg>