<?xml version="1.0" encoding="iso-8859-1"?>
<!-- Generator: Adobe Illustrator 19.0.0, SVG Export Plug-In . SVG Version: 6.00 Build 0)  -->
<svg xmlns="http://www.w3.org/2000/svg" xmlns:xlink="http://www.w3.org/1999/xlink" version="1.1" id="Capa_1" x="0px" y="0px" viewBox="0 0 444.4 444.4" style="enable-background:new 0 0 444.4 444.4;" xml:space="preserve">
<g>
	<path style="fill:#E6E6E6;" d="M70.4,261.2H374c38.8,0,70.4,31.6,70.4,70.4S412.8,402,374,402H70.4C31.6,402,0,370.4,0,331.6   S31.6,261.2,70.4,261.2"/>
	<path style="fill:#DDAC57;" d="M72.4,285.2h299.2c25.6,0,46.4,20.8,46.4,46.4S397.2,378,371.6,378H72.4C46.8,378,26,357.2,26,331.6   S46.8,285.2,72.4,285.2"/>
	<path style="fill:#FFFFFF;" d="M112.8,293.6c-21.2,0-38.8,17.2-38.8,38.8c0,21.2,17.2,38.8,38.8,38.8c21.2,0,38.8-17.2,38.8-38.8   C151.6,311.2,134,293.6,112.8,293.6"/>
	<path style="fill:#DDAC57;" d="M112.8,312c-11.2,0-20.4,9.2-20.4,20.4c0,11.2,9.2,20.4,20.4,20.4s20.4-9.2,20.4-20.4   S124,312,112.8,312"/>
	<path style="fill:#FFFFFF;" d="M222,293.6c-21.2,0-38.8,17.2-38.8,38.8c0,21.2,17.2,38.8,38.8,38.8c21.2,0,38.8-17.2,38.8-38.8   C260.8,311.2,243.2,293.6,222,293.6"/>
	<path style="fill:#DDAC57;" d="M222,312c-11.2,0-20.4,9.2-20.4,20.4c0,11.2,9.2,20.4,20.4,20.4c11.2,0,20.4-9.2,20.4-20.4   S233.2,312,222,312"/>
	<path style="fill:#FFFFFF;" d="M331.2,293.6c-21.2,0-38.8,17.2-38.8,38.8c0,21.2,17.2,38.8,38.8,38.8c21.2,0,38.8-17.2,38.8-38.8   C370,311.2,352.8,293.6,331.2,293.6"/>
	<path style="fill:#DDAC57;" d="M331.2,312c-11.2,0-20.4,9.2-20.4,20.4c0,11.2,9.2,20.4,20.4,20.4c11.2,0,20.4-9.2,20.4-20.4   S342.4,312,331.2,312"/>
	<path style="fill:#FFCC66;" d="M254.8,167.2H342c2,0,3.6,1.6,3.6,3.6V258c0,2-1.6,3.6-3.6,3.6h-87.2c-2,0-3.6-1.6-3.6-3.6v-87.6   C251.2,168.8,252.8,167.2,254.8,167.2"/>
	<path style="fill:#EAAA5E;" d="M265.2,261.2v-94h-10.4c-2,0-3.6,1.6-3.6,3.6V258c0,2,1.6,3.6,3.6,3.6h10.4V261.2z"/>
	<polygon style="fill:#DDAC57;" points="292.8,185.2 293.6,186.4 294.4,187.6 295.2,186.4 295.6,185.2 296.4,186.4 297.2,187.6    297.6,186.4 298.4,185.2 299.2,186.4 300,187.6 300.4,186.4 301.2,185.2 302,186.4 302.4,187.6 303.2,186.4 304,185.2 304.8,186.4    305.2,187.6 305.2,167.2 291.6,167.2 291.6,187.6 292.4,186.4  "/>
	<path style="fill:#FFCC66;" d="M88.4,97.6H240c3.2,0,6,2.8,6,6v151.6c0,3.2-2.8,6-6,6H88.4c-3.2,0-6-2.8-6-6V103.6   C82.4,100.4,85.2,97.6,88.4,97.6"/>
	<path style="fill:#EAAA5E;" d="M106.4,261.2V97.6h-18c-3.2,0-6,2.8-6,6v151.6c0,3.2,2.8,6,6,6H106.4z"/>
	<polygon style="fill:#DDAC57;" points="154.8,129.2 156,131.2 157.2,133.2 158.4,131.2 159.6,129.2 160.8,131.2 162,133.2    163.2,131.2 164.4,129.2 165.6,131.2 166.8,133.2 168,131.2 169.2,129.2 170.4,131.2 171.6,133.2 172.4,131.2 173.6,129.2    174.8,131.2 176,133.2 176,97.6 152.4,97.6 152.4,133.2 153.6,131.2  "/>
	<path style="fill:#FFCC66;" d="M240.4,84l76.8-41.2c1.6-0.8,3.6-0.4,4.8,1.2l41.2,76.8c0.8,1.6,0.4,3.6-1.2,4.8l-77.2,41.2   c-1.6,0.8-3.6,0.4-4.8-1.2l-41.2-77.2C238,86.8,238.8,84.8,240.4,84"/>
	<path style="fill:#EAAA5E;" d="M294,162l-44.4-83.2l-9.2,4.8c-1.6,0.8-2.4,2.8-1.2,4.8l41.2,76.8c0.8,1.6,2.8,2.4,4.8,1.2L294,162z   "/>
	<polygon style="fill:#DDAC57;" points="282.4,82 283.6,82.4 284.8,83.2 284.8,82 284.8,80.4 286,81.2 287.2,82 287.2,80.8    287.2,79.2 288.4,80 289.6,80.8 289.6,79.2 290,78 290.8,78.8 292,79.6 292,78 292.4,76.8 293.2,77.2 294.4,78 284.8,60    272.8,66.4 282.4,84.4 282.4,83.2  "/>
</g>
<g>
</g>
<g>
</g>
<g>
</g>
<g>
</g>
<g>
</g>
<g>
</g>
<g>
</g>
<g>
</g>
<g>
</g>
<g>
</g>
<g>
</g>
<g>
</g>
<g>
</g>
<g>
</g>
<g>
</g>
</svg>
