<?xml version="1.0" encoding="iso-8859-1"?>
<!-- Generator: Adobe Illustrator 19.0.0, SVG Export Plug-In . SVG Version: 6.00 Build 0)  -->
<svg xmlns="http://www.w3.org/2000/svg" xmlns:xlink="http://www.w3.org/1999/xlink" version="1.1" id="Capa_1" x="0px" y="0px" viewBox="0 0 452.8 452.8" style="enable-background:new 0 0 452.8 452.8;" xml:space="preserve">
<g>
	<g>
		<path style="fill:#E6E6E6;" d="M164.4,319.2H15.6c-8.4,0-15.6-6.8-15.6-15.6v-74c0-8.8,6-16.4,14.4-18.4l47.2-12l30-54.8    c4-7.2,11.2-11.6,19.6-11.6h53.6v186.4H164.4z"/>
		<path style="fill:#E6E6E6;" d="M425.2,319.2H164.4v-82.8h261.2c3.2,0,5.6,2.4,5.6,5.6v71.2C431.2,316.8,428.4,319.2,425.2,319.2"/>
	</g>
	<path style="fill:#606060;" d="M342.8,274.8c-24.8,0-44.4,20-44.4,44.4c0,24.8,20,44.4,44.4,44.4c24.8,0,44.4-20,44.4-44.4   C387.2,294.4,367.2,274.8,342.8,274.8"/>
	<path style="fill:#DDAC57;" d="M342.8,295.6c-12.8,0-23.6,10.4-23.6,23.6c0,12.8,10.4,23.6,23.6,23.6c12.8,0,23.6-10.4,23.6-23.6   C366.4,306.4,355.6,295.6,342.8,295.6"/>
	<path style="fill:#606060;" d="M62,274.8c-24.8,0-44.4,20-44.4,44.4c0,24.8,20,44.4,44.4,44.4c24.8,0,44.4-20,44.4-44.4   C106.8,294.4,86.8,274.8,62,274.8"/>
	<path style="fill:#DDAC57;" d="M62,295.6c-12.8,0-23.6,10.4-23.6,23.6c0,12.8,10.4,23.6,23.6,23.6c12.8,0,23.6-10.4,23.6-23.6   C85.6,306.4,75.2,295.6,62,295.6"/>
	<g>
		<path style="fill:#FFCC66;" d="M446.4,184.4h-50v-29.6c0-1.6-1.2-3.2-3.2-3.2h-78.4c-1.6,0-3.2,1.2-3.2,3.2v78.4    c0,1.6,1.2,3.2,3.2,3.2h78.4c1.6,0,3.2-1.2,3.2-3.2v-10.4H426c3.6,0,6.4-2.8,6.4-6.4l0,0c0-3.6-2.8-6.4-6.4-6.4h-29.6h-18.8    c-3.6,0-6.4-2.8-6.4-6.4c0-3.6,2.8-6.4,6.4-6.4h18.8l0,0h50c3.6,0,6.4-2.8,6.4-6.4l0,0C452.8,187.6,450,184.4,446.4,184.4z"/>
		<path style="fill:#FFCC66;" d="M442.4,210.4L442.4,210.4c-3.6,0-6.4,2.8-6.4,6.4v0.4c0,3.6,2.8,6.4,6.4,6.4l0,0    c3.6,0,6.4-2.8,6.4-6.4v-0.4C448.4,213.2,445.6,210.4,442.4,210.4z"/>
	</g>
	<path style="fill:#EAAA5E;" d="M324,236.4V152h-9.2c-1.6,0-3.2,1.2-3.2,3.2v78.4c0,1.6,1.2,3.2,3.2,3.2h9.2V236.4z"/>
	<polygon style="fill:#DDAC57;" points="348.8,168.4 349.6,169.2 350.4,170.4 350.8,169.2 351.6,168.4 352,169.2 352.8,170.4    353.2,169.2 354,168.4 354.4,169.2 355.2,170.4 355.6,169.2 356.4,168.4 356.8,169.2 357.6,170.4 358.4,169.2 358.8,168.4    359.6,169.2 360,170.4 360,152 347.6,152 347.6,170.4 348.4,169.2  "/>
	<path style="fill:#FFCC66;" d="M169.6,89.2h136.8c2.8,0,5.2,2.4,5.2,5.2v136.8c0,2.8-2.4,5.2-5.2,5.2H169.6c-2.8,0-5.2-2.4-5.2-5.2   V94.4C164.4,91.6,166.8,89.2,169.6,89.2"/>
	<path style="fill:#EAAA5E;" d="M185.6,236.4V89.2h-16c-2.8,0-5.2,2.4-5.2,5.2v136.8c0,2.8,2.4,5.2,5.2,5.2L185.6,236.4L185.6,236.4   z"/>
	<polygon style="fill:#DDAC57;" points="229.2,117.6 230.4,119.6 231.6,121.6 232.4,119.6 233.6,117.6 234.8,119.6 235.6,121.6    236.8,119.6 238,117.6 239.2,119.6 240,121.6 241.2,119.6 242.4,117.6 243.2,119.6 244.4,121.6 245.6,119.6 246.4,117.6    247.6,119.6 248.8,121.6 248.8,89.2 227.2,89.2 227.2,121.6 228.4,119.6  "/>
	<g>
		<path style="fill:#D1D1D1;" d="M164.4,303.6h136.4c-1.6,4.8-2.8,10-2.8,15.6H164.4V303.6z"/>
		<path style="fill:#D1D1D1;" d="M387.2,319.2c0-5.6-0.8-10.8-2.8-15.6h46.4v10c0,3.2-2.4,5.6-5.6,5.6h-10H387.2z"/>
		<path style="fill:#D1D1D1;" d="M164.4,303.6v15.6h-57.6c0-5.6-0.8-10.8-2.8-15.6H164.4z"/>
		<path style="fill:#D1D1D1;" d="M20.4,303.6c-1.6,4.8-2.8,10-2.8,15.6h-2c-8.4,0-15.6-6.8-15.6-15.6H20.4z"/>
	</g>
</g>
<g>
</g>
<g>
</g>
<g>
</g>
<g>
</g>
<g>
</g>
<g>
</g>
<g>
</g>
<g>
</g>
<g>
</g>
<g>
</g>
<g>
</g>
<g>
</g>
<g>
</g>
<g>
</g>
<g>
</g>
</svg>
