<?xml version="1.0" encoding="iso-8859-1"?>
<!-- Generator: Adobe Illustrator 19.0.0, SVG Export Plug-In . SVG Version: 6.00 Build 0)  -->
<svg xmlns="http://www.w3.org/2000/svg" xmlns:xlink="http://www.w3.org/1999/xlink" version="1.1" id="Capa_1" x="0px" y="0px" viewBox="0 0 346.4 346.4" style="enable-background:new 0 0 346.4 346.4;" xml:space="preserve">
<path style="fill:#E6E6E6;" d="M270.4,75.6c-24.8-24.8-59.2-40-97.2-40S100.8,50.8,76,76c-24.8,24.8-40.4,59.2-40.4,97.2  s15.2,72.4,40.4,97.2c24.8,24.8,59.2,40.4,97.2,40.4s72.4-15.2,97.2-40.4c24.8-24.8,40.4-59.2,40.4-97.2  C310.4,134.8,295.2,100.8,270.4,75.6 M173.2,0c47.6,0,91.2,19.2,122.4,50.8c31.2,31.2,50.8,74.4,50.8,122.4  c0,47.6-19.2,91.2-50.8,122.4c-31.2,31.2-74.4,50.8-122.4,50.8c-47.6,0-91.2-19.2-122.4-50.8C19.6,264.4,0,221.2,0,173.2  C0,125.6,19.2,82,50.8,50.8C82,19.2,125.6,0,173.2,0z"/>
<path style="fill:#FFCC66;" d="M160,218c8.4,0,15.2,6.8,15.2,15.2c0,8.4-6.8,15.2-15.2,15.2c-20.8,0-39.6-8.4-53.2-22  s-22-32.4-22-53.2s8.4-39.6,22-53.2c13.6-13.6,32.4-22,53.2-22c8.4,0,15.2,6.8,15.2,15.2s-6.8,15.2-15.2,15.2  c-12.4,0-23.6,5.2-32,13.2c-8,8-13.2,19.6-13.2,32s5.2,23.6,13.2,32C136.4,212.8,147.6,218,160,218 M204,158h42.4  c8.4,0,15.2,6.8,15.2,15.2c0,8.4-6.8,15.2-15.2,15.2H204c2.4,6.4,6,12,10.8,16.8c8,8,19.6,13.2,32,13.2c8.4,0,15.2,6.8,15.2,15.2  c0,8.4-6.8,15.2-15.2,15.2c-20.8,0-39.6-8.4-53.2-22s-22-32.4-22-53.2s8.4-39.6,22-53.2c13.6-13.6,32.4-22,53.2-22  c8.4,0,15.2,6.8,15.2,15.2s-6.8,15.2-15.2,15.2c-12.4,0-23.6,5.2-32,13.2C209.6,145.6,206,151.6,204,158z"/>
<g>
</g>
<g>
</g>
<g>
</g>
<g>
</g>
<g>
</g>
<g>
</g>
<g>
</g>
<g>
</g>
<g>
</g>
<g>
</g>
<g>
</g>
<g>
</g>
<g>
</g>
<g>
</g>
<g>
</g>
</svg>
