<?xml version="1.0" encoding="iso-8859-1"?>
<!-- Generator: Adobe Illustrator 19.0.0, SVG Export Plug-In . SVG Version: 6.00 Build 0)  -->
<svg xmlns="http://www.w3.org/2000/svg" xmlns:xlink="http://www.w3.org/1999/xlink" version="1.1" id="Capa_1" x="0px" y="0px" viewBox="0 0 466 466" style="enable-background:new 0 0 466 466;" xml:space="preserve">
<g>
	<path style="fill:#FFCC66;" d="M176.8,253.2H84.4c-2,0-3.6,1.6-3.6,3.6v92.4c0,2,1.6,3.6,3.6,3.6h92.4c2,0,3.6-1.6,3.6-3.6v-92.4   C180.4,254.8,178.8,253.2,176.8,253.2"/>
	<path style="fill:#EAAA5E;" d="M165.6,352.8v-99.6h10.8c2,0,3.6,1.6,3.6,3.6v92.4c0,2-1.6,3.6-3.6,3.6H165.6z"/>
	<polygon style="fill:#DDAC57;" points="136.4,272.4 135.6,273.6 134.8,275.2 134,273.6 133.6,272.4 132.8,273.6 132,275.2    131.2,273.6 130.4,272.4 129.6,273.6 129.2,275.2 128.4,273.6 127.6,272.4 126.8,273.6 126,275.2 125.6,273.6 124.8,272.4    124,273.6 123.2,275.2 123.2,253.2 137.6,253.2 137.6,275.2 137.2,273.6  "/>
	<path style="fill:#FFCC66;" d="M352.8,179.6H192.4c-3.6,0-6.4,2.8-6.4,6.4v160.8c0,3.6,2.8,6.4,6.4,6.4h160.8   c3.6,0,6.4-2.8,6.4-6.4V186C359.2,182.4,356.4,179.6,352.8,179.6"/>
	<path style="fill:#EAAA5E;" d="M334,352.8V179.6h18.8c3.6,0,6.4,2.8,6.4,6.4v160.8c0,3.6-2.8,6.4-6.4,6.4H334V352.8z"/>
	<polygon style="fill:#DDAC57;" points="282.8,213.2 281.2,215.2 280,217.6 278.8,215.2 277.6,213.2 276.4,215.2 275.2,217.6    273.6,215.2 272.4,213.2 271.2,215.2 270,217.6 268.8,215.2 267.6,213.2 266.4,215.2 264.8,217.6 263.6,215.2 262.4,213.2    261.2,215.2 260,217.6 260,179.6 285.2,179.6 285.2,217.6 284,215.2  "/>
	<g>
		<path style="fill:#E6E6E6;" d="M380.4,352.8H27.6C12.4,352.8,0,365.2,0,380.4S12.4,408,27.6,408h353.2c15.2,0,27.6-12.4,27.6-27.6    C408,365.2,395.6,352.8,380.4,352.8"/>
		<path style="fill:#E6E6E6;" d="M408,380.4v-220c0-7.2-6-12.8-12.8-12.8l0,0c-7.2,0-12.8,6-12.8,12.8v220c0,7.2,6,12.8,12.8,12.8    l0,0C402.4,393.2,408,387.6,408,380.4"/>
	</g>
	<path style="fill:#606060;" d="M348.4,366c-22.8,0-40.8,18.4-40.8,40.8c0,22.8,18.4,40.8,40.8,40.8c22.4,0,40.8-18.4,40.8-40.8   C389.6,384.4,371.2,366,348.4,366"/>
	<path style="fill:#DDAC57;" d="M348.4,385.6c-12,0-21.6,9.6-21.6,21.6s9.6,21.6,21.6,21.6s21.6-9.6,21.6-21.6   S360.4,385.6,348.4,385.6"/>
	<path style="fill:#606060;" d="M58,366c-22.8,0-40.8,18.4-40.8,40.8c0,22.8,18.4,40.8,40.8,40.8c22.8,0,40.8-18.4,40.8-40.8   C99.2,384.4,80.8,366,58,366"/>
	<path style="fill:#DDAC57;" d="M58,385.6c-12,0-21.6,9.6-21.6,21.6S46,428.8,58,428.8s21.6-9.6,21.6-21.6S70,385.6,58,385.6"/>
</g>
<path style="fill:#E6E6E6;" d="M362,55.6c8.4-8.4,20-13.6,33.2-13.6c12.8,0,24.8,5.2,33.2,13.6c8.4,8.4,13.6,20,13.6,33.2  s-5.2,24.8-13.6,33.2c-8.4,8.4-20,13.6-33.2,13.6c-12.8,0-24.8-5.2-33.2-13.6c-8.4-8.4-13.6-20-13.6-33.2S353.6,64,362,55.6   M395.2,18.4c-19.6,0-37.2,8-50,20.8s-20.8,30.4-20.8,50s8,37.2,20.8,50s30.4,20.8,50,20.8c19.6,0,37.2-8,50-20.8s20.8-30.4,20.8-50  s-8-37.2-20.8-50C432.4,26,414.8,18.4,395.2,18.4z"/>
<g>
	<path style="fill:#FFCC66;" d="M362,55.6c8.4-8.4,20-13.6,33.2-13.6c12.8,0,24.8,5.2,33.2,13.6c8.4,8.4,13.6,20,13.6,33.2   s-5.2,24.8-13.6,33.2c-8.4,8.4-20,13.6-33.2,13.6c-12.8,0-24.8-5.2-33.2-13.6c-8.4-8.4-13.6-20-13.6-33.2S353.6,64,362,55.6"/>
	<path style="fill:#FFFFFF;" d="M401.6,82.4c-0.4-0.4-1.2-1.2-2-1.6V55.2c0-2.4-2-4.4-4.4-4.4c-2.4,0-4.4,2-4.4,4.4v25.6   c-0.8,0.4-1.6,0.8-2,1.6c-1.6,1.6-2.8,4-2.8,6.4s1.2,4.8,2.8,6.4c1.6,1.6,4,2.8,6.4,2.8c2.4,0,4.4-2,6.4-2.8   c1.6-0.4,2.4-2.8,2.8-6.4C404.4,86.4,403.6,84,401.6,82.4z"/>
</g>
<path style="fill:#E6E6E6;" d="M186.4,76c7.2-7.6,17.6-12,28.4-12c4.4,0,8.4,0.4,11.6,1.6c4,1.2,7.6,2.8,10.4,4.4  c1.6,0.8,2.8,1.6,3.6,2.8l0,0c1.2,1.2,1.6,2.8,1.6,4.8s-0.8,4.4-2.4,6c-1.2,1.6-3.2,2.8-5.6,2.8c-1.6,0-2.8-0.4-4-0.8  s-2-1.2-3.2-1.6l0,0c-1.6-0.8-3.2-1.6-5.2-2.4s-4.4-1.2-7.6-1.2c-5.6,0-10.8,2.8-14.8,7.2c-4,4-6.4,10-6.4,16.4c0,7.6,2,13.6,5.6,18  c3.6,4,9.2,6.4,15.6,6.4c4.8,0,8.8-2,11.6-4.8l0,0c2.4-2.4,4-6,4.8-9.2h-8.8l0,0c-2.4,0-4.4-0.8-5.6-2.4l0,0c-1.2-1.6-2-3.6-2-5.6  c0-2.4,0.8-4.4,2.4-5.6c1.2-1.2,3.2-2,5.6-2.4l0,0h16.8c4,0,6.4,1.2,8,3.6c1.6,2,2,4.8,2,7.6l0,0c0,10.4-3.6,19.6-10,26  c-6,6.4-14.8,10-25.6,10c-10.8,0-20.4-4.4-27.6-11.6l0,0c-6.8-7.2-10.8-17.2-10.8-28.8C174.8,93.2,179.6,83.2,186.4,76 M130,88.4  v6.8c3.2-3.6,6.4-7.6,10-11.2c4.8-5.2,9.2-10.8,13.2-15.2l0,0c0.8-1.2,2-2,3.2-2.8l0,0c1.2-0.8,2.8-1.6,4.8-1.6  c2.4,0,4.4,1.2,6.4,2.4c1.6,1.6,2.8,4,2.8,6c0,1.2-0.4,2.4-0.8,3.6c-0.4,1.2-1.2,2-2,3.2c-4.8,5.6-12,13.2-16.8,18l-1.6,2l0,0  l-2,2.4c1.2,1.6,2.8,3.2,4.8,5.6c2.8,3.6,6.4,7.6,9.2,10.8l0,0c1.2,1.6,2.8,3.2,4,4.8c1.6,1.6,3.2,3.6,4.8,5.6l0,0  c1.2,1.2,2,2.4,2.4,3.2l0,0c0.8,1.2,0.8,2.4,0.8,4c0,2.4-1.2,4.8-2.8,6.4c-1.6,1.6-4.4,2.8-6.8,2.8c-1.6,0-2.8-0.4-4.4-1.2  c-1.2-0.8-2-1.6-3.2-2.8l0,0c-0.8-0.8-1.6-2-2-2.8l-1.2-1.2l0,0c-2.8-3.6-5.2-7.2-10-13.2c-2.4-3.2-5.2-6.4-8-10  c-0.8,0.8-1.6,1.6-2.4,2.4c-0.8,0.8-2,2-2.8,2.8v18l0,0c0,2.4-0.8,4.4-2.8,6c-1.6,1.2-4,2-6.4,2l0,0c-2.4,0-4.8-0.8-6.4-2  c-1.6-1.6-2.8-3.6-2.8-6c0-0.4,0-1.6,0-3.2c0-1.2,0-2.4,0-4.8c0-8.4,0-17.6,0-27.2c0-7.6,0-15.6,0-28c0-2.8,0.8-4.8,2.4-6.4  c1.6-1.6,4-2.4,6.4-2.4c2.8,0,4.8,0.8,6.4,2c1.6,1.6,2.4,3.6,2.4,6.4C130,75.6,130,82,130,88.4z"/>
<g>
</g>
<g>
</g>
<g>
</g>
<g>
</g>
<g>
</g>
<g>
</g>
<g>
</g>
<g>
</g>
<g>
</g>
<g>
</g>
<g>
</g>
<g>
</g>
<g>
</g>
<g>
</g>
<g>
</g>
</svg>
