<?xml version="1.0" encoding="iso-8859-1"?>
<!-- Generator: Adobe Illustrator 19.0.0, SVG Export Plug-In . SVG Version: 6.00 Build 0)  -->
<svg xmlns="http://www.w3.org/2000/svg" xmlns:xlink="http://www.w3.org/1999/xlink" version="1.1" id="Capa_1" x="0px" y="0px" viewBox="0 0 346.4 346.4" style="enable-background:new 0 0 346.4 346.4;" xml:space="preserve">
<path style="fill:#E6E6E6;" d="M270.4,76c-24.8-24.8-59.2-40-97.2-40S100.8,51.2,76,76.4c-24.8,24.4-40,58.8-40,96.8  s15.2,72.4,40.4,97.2c24.8,24.8,59.2,40.4,97.2,40.4s72.4-15.2,97.2-40.4c24.8-24.8,40.4-59.2,40.4-97.2  C310.4,135.2,295.2,100.8,270.4,76 M173.2,0c47.6,0,91.2,19.2,122.4,50.8c31.2,31.2,50.8,74.4,50.8,122.4  c0,47.6-19.2,91.2-50.8,122.4c-31.2,31.2-74.4,50.8-122.4,50.8c-47.6,0-91.2-19.2-122.4-50.8C19.6,264.4,0,220.8,0,173.2  S19.2,82,50.8,50.8C82,19.6,125.6,0,173.2,0z"/>
<g>
	<path style="fill:#EAAA5E;" d="M168.8,156.4L168.8,156.4h8.8c1.2,0,2.4,1.2,2.4,2.4l0,0V252l0,0c0,1.2,0.4,2,0.4,2.8   c0.4,0.8,0.8,1.6,1.6,2.4l0,0l0,0c0.8,0.8,1.6,1.2,2.4,1.6l0,0l0,0c0.8,0.4,2,0.8,3.2,0.8s2-0.4,3.2-0.8c0.8-0.4,2-1.2,2.8-1.6   c0.8-0.8,1.2-1.6,1.6-2.8c0.4-0.8,0.8-2,0.8-3.2c0-2,0.8-3.6,2-4.8c1.2-1.2,2.8-2,4.8-2s3.6,0.8,4.8,2c1.2,1.2,2,2.8,2,4.8   c0,2.8-0.4,5.6-1.6,8.4l0,0l0,0c-1.2,2.8-2.8,5.2-4.8,7.2s-4.4,3.6-7.2,4.8l0,0c-2.4,1.2-5.2,1.6-8,1.6s-5.6-0.4-8.4-1.6   s-5.2-2.8-7.2-4.8v-0.4c-2-2-3.6-4.4-4.4-6.8c-1.2-2.4-1.6-5.2-1.6-8l0,0l0,0v-92.8C166.4,157.2,167.6,156.4,168.8,156.4"/>
	<path style="fill:#FFCC66;" d="M173.2,173.2H81.6c0-50.8,40.8-92,91.6-92s91.6,41.2,91.6,92H173.2z"/>
	<path style="fill:#DDAC57;" d="M173.2,173.2h-36.4c0-50.8,16.4-92,36.4-92s36.4,41.2,36.4,91.6h-36.4V173.2z"/>
	<path style="fill:#EAAA5E;" d="M173.2,72.8L173.2,72.8c3.6,0,6.8,3.2,6.8,6.8v3.2h-13.6v-3.2C166.4,76,169.6,72.8,173.2,72.8"/>
</g>
<g>
</g>
<g>
</g>
<g>
</g>
<g>
</g>
<g>
</g>
<g>
</g>
<g>
</g>
<g>
</g>
<g>
</g>
<g>
</g>
<g>
</g>
<g>
</g>
<g>
</g>
<g>
</g>
<g>
</g>
</svg>
