<?xml version="1.0" encoding="iso-8859-1"?>
<!-- Generator: Adobe Illustrator 19.0.0, SVG Export Plug-In . SVG Version: 6.00 Build 0)  -->
<svg xmlns="http://www.w3.org/2000/svg" xmlns:xlink="http://www.w3.org/1999/xlink" version="1.1" id="Capa_1" x="0px" y="0px" viewBox="0 0 353.6 353.6" style="enable-background:new 0 0 353.6 353.6;" xml:space="preserve">
<g>
	<path style="fill:#FFCC66;" d="M0.8,98.8h352v242c0,7.2-5.6,12.8-12.8,12.8H13.6c-7.2,0-12.8-5.6-12.8-12.8V98.8z"/>
	<polygon style="fill:#DDAC57;" points="156.4,166.4 158.8,171.2 161.6,175.6 164,171.2 166.4,166.4 169.2,171.2 171.6,175.6    174.4,171.2 176.8,166.4 179.2,171.2 182,175.6 184.4,171.2 187.2,166.4 189.6,171.2 192,175.6 194.8,171.2 197.2,166.4 200,171.2    202.4,175.6 202.4,98.8 151.2,98.8 151.2,175.6 153.6,171.2  "/>
	<path style="fill:#FFCC66;" d="M0.8,98.8h352L304.4,5.2C303.2,2.4,302,0,299.2,0H54.8c-2.8,0-4,2.8-5.2,5.2L0.8,98.8z"/>
	<g>
		<polygon style="fill:#DDAC57;" points="151.2,98.8 202.4,98.8 192,0 161.6,0   "/>
		<path style="fill:#DDAC57;" d="M119.2,210h115.6c9.2,0,16.8,7.6,16.8,16.8V300c0,9.2-7.6,16.8-16.8,16.8H119.2    c-9.2,0-16.8-7.6-16.8-16.8v-73.2C102,217.6,109.6,210,119.2,210"/>
	</g>
</g>
<g>
	<path style="fill:#FFFFFF;" d="M130,235.6c-2,0-3.6-1.6-3.6-3.6s1.6-3.6,3.6-3.6h94c2,0,3.6,1.6,3.6,3.6s-1.6,3.6-3.6,3.6H130z"/>
	<path style="fill:#FFFFFF;" d="M130,256.8c-2,0-3.6-1.6-3.6-3.6s1.6-3.6,3.6-3.6h94c2,0,3.6,1.6,3.6,3.6s-1.6,3.6-3.6,3.6H130z"/>
	<path style="fill:#FFFFFF;" d="M130,277.6c-2,0-3.6-1.6-3.6-3.6s1.6-3.6,3.6-3.6h94c2,0,3.6,1.6,3.6,3.6s-1.6,3.6-3.6,3.6H130z"/>
	<path style="fill:#FFFFFF;" d="M130,298.4c-2,0-3.6-1.6-3.6-3.6s1.6-3.6,3.6-3.6h94c2,0,3.6,1.6,3.6,3.6s-1.6,3.6-3.6,3.6H130z"/>
</g>
<g>
</g>
<g>
</g>
<g>
</g>
<g>
</g>
<g>
</g>
<g>
</g>
<g>
</g>
<g>
</g>
<g>
</g>
<g>
</g>
<g>
</g>
<g>
</g>
<g>
</g>
<g>
</g>
<g>
</g>
</svg>
