<?xml version="1.0" encoding="iso-8859-1"?>
<!-- Generator: Adobe Illustrator 19.0.0, SVG Export Plug-In . SVG Version: 6.00 Build 0)  -->
<svg xmlns="http://www.w3.org/2000/svg" xmlns:xlink="http://www.w3.org/1999/xlink" version="1.1" id="Capa_1" x="0px" y="0px" viewBox="0 0 393.6 393.6" style="enable-background:new 0 0 393.6 393.6;" xml:space="preserve">
<g>
	<path style="fill:#FFCC66;" d="M95.2,85.6h225.6c7.6,0,13.6,6,13.6,13.6v143.2c0,7.6-6,13.6-13.6,13.6H95.2   c-7.6,0-13.6-6-13.6-13.6V170H114c5.2,0,9.6-4.4,9.6-9.6c0-5.2-4.4-9.6-9.6-9.6H81.6V99.2C81.6,91.6,87.6,85.6,95.2,85.6z"/>
	<polygon style="fill:#EAAA5E;" points="320.8,256 256.8,143.2 208,170.8 159.2,143.2 95.2,256  "/>
	<g>
		<path style="fill:#FFCC66;" d="M256.8,143.2l64,112.8c7.6,0,13.6-6,13.6-13.6V99.2L256.8,143.2z"/>
		<path style="fill:#FFCC66;" d="M81.6,99.2v31.6h-72c-5.2,0-9.6,4.4-9.6,9.6c0,5.2,4.4,9.6,9.6,9.6h72H114c5.2,0,9.6,4.4,9.6,9.6    c0,5.2-4.4,9.6-9.6,9.6H81.6H41.2c-5.2,0-9.6,4.4-9.6,9.6c0,5.2,4.4,9.6,9.6,9.6h40.4v53.2c0,7.6,6,13.6,13.6,13.6l64-112.8    L81.6,99.2z"/>
		<path style="fill:#FFCC66;" d="M16,170L16,170c-5.2,0-9.6,4.4-9.6,9.6v0.4c0,5.2,4.4,9.6,9.6,9.6l0,0c5.2,0,9.6-4.4,9.6-9.6v-0.4    C25.6,174,21.2,170,16,170z"/>
	</g>
</g>
<path style="fill:#E6E6E6;" d="M317.6,156c20.8,0,40,8.4,53.6,22.4c13.6,13.6,22.4,32.8,22.4,53.6s-8.4,40-22.4,53.6  c-13.6,13.6-32.8,22.4-53.6,22.4c-20.8,0-40-8.4-53.6-22.4c-13.6-13.6-22.4-32.8-22.4-53.6c0-20.8,8.4-40,22.4-53.6  C277.6,164.8,296.8,156,317.6,156"/>
<path style="fill:#FFFFFF;" d="M278.8,237.2c-5.6-5.6-5.6-14.4,0-20s14.4-5.6,20,0l12.4,12.4l24.8-24.8c5.6-5.6,14.4-5.6,20,0  s5.6,14.4,0,20l-34.8,34.8c-5.6,5.6-14.4,5.6-20,0L278.8,237.2z"/>
<g>
</g>
<g>
</g>
<g>
</g>
<g>
</g>
<g>
</g>
<g>
</g>
<g>
</g>
<g>
</g>
<g>
</g>
<g>
</g>
<g>
</g>
<g>
</g>
<g>
</g>
<g>
</g>
<g>
</g>
</svg>
