<?xml version="1.0" encoding="iso-8859-1"?>
<!-- Generator: Adobe Illustrator 19.0.0, SVG Export Plug-In . SVG Version: 6.00 Build 0)  -->
<svg xmlns="http://www.w3.org/2000/svg" xmlns:xlink="http://www.w3.org/1999/xlink" version="1.1" id="Capa_1" x="0px" y="0px" viewBox="0 0 396 396" style="enable-background:new 0 0 396 396;" xml:space="preserve">
<g>
	<path style="fill:#E6E6E6;" d="M220,357.6c0.4-5.2,4.4-8.8,9.6-8.8c5.2,0.4,8.8,4.4,8.8,9.6c-0.4,10.4-5.2,20-12,26.8   c-7.2,6.8-16.8,10.8-27.2,10.8c-10.8,0-20.8-4.4-28-11.6l0,0c-7.2-7.2-11.6-17.2-11.6-28s4.4-20.8,11.6-28l0,0   c5.2-5.2,11.6-8.8,18.8-10.4l-0.4-52c0-5.2,4-9.2,8.8-9.2c5.2,0,9.2,4,9.2,8.8l0.4,59.2c0,0.4,0,0.8,0,0.8c0,5.2-4,9.2-9.2,9.2   c-6,0-11.2,2.4-15.2,6.4c-4,4-6.4,9.2-6.4,15.2s2.4,11.2,6.4,15.2c4,4,9.2,6.4,15.2,6.4c5.6,0,10.8-2.4,14.8-6   C217.2,368.4,219.6,363.2,220,357.6"/>
	<polygon style="fill:#E6E6E6;" points="56.4,122.4 92,61.2 127.2,0 198,0 268.8,0 304,61.2 339.6,122.4 304,183.6 268.8,245.2    198,245.2 127.2,245.2 92,183.6  "/>
</g>
<g>
	<path style="fill:#FFCC66;" d="M161.2,245.2h73.6c0,11.6-9.6,21.2-21.2,21.2h-31.2C170.8,266.4,161.2,256.8,161.2,245.2z"/>
	<polygon style="fill:#D1D1D1;" points="198,0 198,245.2 234.8,245.2 268.8,245.2 304,183.6 339.6,122.4 304,61.2 268.8,0  "/>
</g>
<g>
</g>
<g>
</g>
<g>
</g>
<g>
</g>
<g>
</g>
<g>
</g>
<g>
</g>
<g>
</g>
<g>
</g>
<g>
</g>
<g>
</g>
<g>
</g>
<g>
</g>
<g>
</g>
<g>
</g>
</svg>
