<?xml version="1.0" encoding="iso-8859-1"?>
<!-- Generator: Adobe Illustrator 19.0.0, SVG Export Plug-In . SVG Version: 6.00 Build 0)  -->
<svg xmlns="http://www.w3.org/2000/svg" xmlns:xlink="http://www.w3.org/1999/xlink" version="1.1" id="Capa_1" x="0px" y="0px" viewBox="0 0 428.4 428.4" style="enable-background:new 0 0 428.4 428.4;" xml:space="preserve">
<g>
	<g>
		<path style="fill:#D1D1D1;" d="M83.6,368.993v-62.8c0-10,8-18,18-18l0,0c10,0,18,8,18,18v62.8c0,10-8,18-18,18l0,0    C92,386.993,83.6,378.993,83.6,368.993"/>
		<path style="fill:#D1D1D1;" d="M196.4,368.993v-62.8c0-10,8-18,18-18l0,0c10,0,18,8,18,18v62.8c0,10-8,18-18,18l0,0    C204.4,386.993,196.4,378.993,196.4,368.993"/>
		<path style="fill:#D1D1D1;" d="M308.8,368.993v-62.8c0-10,8-18,18-18l0,0c10,0,18,8,18,18v62.8c0,10-8,18-18,18l0,0    C316.8,386.993,308.8,378.993,308.8,368.993"/>
	</g>
	<g>
		<path style="fill:#E6E6E6;" d="M18,275.393h392.4c10,0,18,8,18,18l0,0c0,10-8,18-18,18H18c-10,0-18-8-18-18l0,0    C0,283.793,8,275.393,18,275.393"/>
		<path style="fill:#E6E6E6;" d="M18,358.593h392.4c10,0,18,8,18,18l0,0c0,10-8,18-18,18H18c-10,0-18-8-18-18l0,0    C0,366.993,8,358.593,18,358.593"/>
	</g>
	<path style="fill:#FFCC66;" d="M250.8,171.793h96.4c2,0,3.6,1.6,3.6,3.6v96.4c0,2-1.6,3.6-3.6,3.6h-96.4c-2,0-3.6-1.6-3.6-3.6   v-96.4C246.8,173.393,248.4,171.793,250.8,171.793"/>
	<path style="fill:#EAAA5E;" d="M262,275.393v-104h-11.2c-2,0-3.6,1.6-3.6,3.6v96.4c0,2,1.6,3.6,3.6,3.6H262V275.393z"/>
	<polygon style="fill:#DDAC57;" points="292.8,191.793 293.6,192.993 294.4,194.193 295.2,192.993 295.6,191.793 296.4,192.993    297.2,194.193 298,192.993 298.8,191.793 299.6,192.993 300.4,194.193 301.2,192.993 302,191.793 302.8,192.993 303.2,194.193    304,192.993 304.8,191.793 305.6,192.993 306.4,194.193 306.4,171.793 291.2,171.793 291.2,194.193 292,192.993  "/>
	<path style="fill:#FFCC66;" d="M66.8,94.593h167.6c3.6,0,6.4,2.8,6.4,6.4v167.6c0,3.6-2.8,6.4-6.4,6.4H66.8c-3.6,0-6.4-2.8-6.4-6.4   v-167.2C60.4,97.793,63.2,94.593,66.8,94.593"/>
	<path style="fill:#EAAA5E;" d="M86.4,275.393v-180.8H66.8c-3.6,0-6.4,2.8-6.4,6.4v167.6c0,3.6,2.8,6.4,6.4,6.4h19.6V275.393z"/>
	<polygon style="fill:#DDAC57;" points="140,129.793 141.2,132.193 142.8,134.193 144,132.193 145.2,129.793 146.8,132.193    148,134.193 149.2,132.193 150.8,129.793 152,132.193 153.2,134.193 154.4,132.193 156,129.793 157.2,132.193 158.4,134.193    160,132.193 161.2,129.793 162.4,132.193 163.6,134.193 163.6,94.593 137.6,94.593 137.6,134.193 138.8,132.193  "/>
	<path style="fill:#FFCC66;" d="M235.2,79.793l84.8-45.6c2-0.8,4-0.4,5.2,1.6l45.2,84.8c0.8,2,0.4,4-1.6,5.2l-84.8,45.6   c-2,0.8-4,0.4-5.2-1.6l-45.2-85.2C232.4,82.993,233.2,80.593,235.2,79.793"/>
	<path style="fill:#EAAA5E;" d="M294,165.793l-48.8-91.6l-10,5.2c-2,0.8-2.4,3.2-1.6,5.2l45.6,84.8c0.8,2,3.2,2.4,5.2,1.6   L294,165.793z"/>
	<polygon style="fill:#DDAC57;" points="281.6,77.393 282.8,78.193 284.4,78.993 284.4,77.393 284.4,76.193 285.6,76.993    286.8,77.793 286.8,76.193 287.2,74.593 288.4,75.393 289.6,76.193 289.6,74.593 289.6,72.993 290.8,73.793 292.4,74.593    292.4,73.393 292.4,71.793 293.6,72.593 294.8,73.393 284.4,53.393 270.8,60.593 281.6,80.593 281.6,78.993  "/>
</g>
<g>
</g>
<g>
</g>
<g>
</g>
<g>
</g>
<g>
</g>
<g>
</g>
<g>
</g>
<g>
</g>
<g>
</g>
<g>
</g>
<g>
</g>
<g>
</g>
<g>
</g>
<g>
</g>
<g>
</g>
</svg>
