<?xml version="1.0" encoding="iso-8859-1"?>
<!-- Generator: Adobe Illustrator 19.0.0, SVG Export Plug-In . SVG Version: 6.00 Build 0)  -->
<svg xmlns="http://www.w3.org/2000/svg" xmlns:xlink="http://www.w3.org/1999/xlink" version="1.1" id="Capa_1" x="0px" y="0px" viewBox="0 0 346.4 346.4" style="enable-background:new 0 0 346.4 346.4;" xml:space="preserve">
<path style="fill:#E6E6E6;" d="M270.4,76c-24.8-24.8-59.2-40-97.2-40S100.8,51.2,76,76.4c-24.8,24.4-40,58.8-40,96.8  s15.2,72.4,40.4,97.2c24.8,24.8,59.2,40.4,97.2,40.4s72.4-15.2,97.2-40.4c24.8-24.8,40.4-59.2,40.4-97.2  C310.4,135.2,295.2,100.8,270.4,76 M173.2,0c47.6,0,91.2,19.2,122.4,50.8c31.2,31.2,50.8,74.4,50.8,122.4  c0,47.6-19.2,91.2-50.8,122.4c-31.2,31.2-74.4,50.8-122.4,50.8c-47.6,0-91.2-19.2-122.4-50.8C19.6,264.4,0,220.8,0,173.2  S19.2,82,50.8,50.8C82,19.6,125.6,0,173.2,0z"/>
<g>
	<g>
		<path style="fill:#FFCC66;" d="M112.8,84h120.8v65.6c0,30.4-24.8,55.2-55.2,55.2H168c-30.4,0-55.2-24.8-55.2-55.2L112.8,84    L112.8,84z"/>
		<rect x="165.6" y="198.4" style="fill:#FFCC66;" width="15.2" height="70"/>
		<path style="fill:#FFCC66;" d="M173.2,264.8c25.2,0,46,2.8,46,6s-20.4,6-46,6c-25.2,0-46-2.8-46-6    C127.2,267.2,148,264.8,173.2,264.8"/>
	</g>
	<polygon style="fill:#DDAC57;" points="160.4,84 191.6,84 181.6,109.2 198.8,109.2 162.8,167.6 167.2,117.6 146.8,117.6  "/>
</g>
<g>
</g>
<g>
</g>
<g>
</g>
<g>
</g>
<g>
</g>
<g>
</g>
<g>
</g>
<g>
</g>
<g>
</g>
<g>
</g>
<g>
</g>
<g>
</g>
<g>
</g>
<g>
</g>
<g>
</g>
</svg>
