<?xml version="1.0" encoding="iso-8859-1"?>
<!-- Generator: Adobe Illustrator 19.0.0, SVG Export Plug-In . SVG Version: 6.00 Build 0)  -->
<svg xmlns="http://www.w3.org/2000/svg" xmlns:xlink="http://www.w3.org/1999/xlink" version="1.1" id="Capa_1" x="0px" y="0px" viewBox="0 0 421.491 421.491" style="enable-background:new 0 0 421.491 421.491;" xml:space="preserve">
<g>
	<path style="fill:#FFCC66;" d="M255.091,218.291h86.8c2,0,3.6,1.6,3.6,3.6v86.8c0,2-1.6,3.6-3.6,3.6h-86.8c-2,0-3.6-1.6-3.6-3.6   v-87.2C251.891,219.891,253.091,218.291,255.091,218.291"/>
	<path style="fill:#EAAA5E;" d="M265.491,311.891v-93.6h-10.4c-2,0-3.6,1.6-3.6,3.6v86.8c0,2,1.6,3.6,3.6,3.6h10.4V311.891z"/>
	<polygon style="fill:#DDAC57;" points="293.091,236.291 293.891,237.491 294.691,238.691 295.091,237.491 295.891,236.291    296.691,237.491 297.091,238.691 297.891,237.491 298.691,236.291 299.491,237.491 299.891,238.691 300.691,237.491    301.491,236.291 301.891,237.491 302.691,238.691 303.491,237.491 303.891,236.291 304.691,237.491 305.491,238.691    305.491,218.291 291.891,218.291 291.891,238.691 292.291,237.491  "/>
	<path style="fill:#FFCC66;" d="M89.091,148.691h151.2c3.2,0,6,2.8,6,6v151.2c0,3.2-2.8,6-6,6h-151.2c-3.2,0-6-2.8-6-6v-151.2   C83.491,151.491,85.891,148.691,89.091,148.691"/>
	<path style="fill:#EAAA5E;" d="M107.091,311.891v-163.2h-18c-3.2,0-6,2.8-6,6v151.2c0,3.2,2.8,6,6,6H107.091z"/>
	<polygon style="fill:#DDAC57;" points="155.491,180.291 156.691,182.291 157.891,184.291 159.091,182.291 160.291,180.291    161.491,182.291 162.691,184.291 163.891,182.291 165.091,180.291 165.891,182.291 167.091,184.291 168.291,182.291    169.491,180.291 170.691,182.291 171.891,184.291 173.091,182.291 174.291,180.291 175.491,182.291 176.691,184.291    176.691,148.691 153.091,148.691 153.091,184.291 154.291,182.291  "/>
	<path style="fill:#FFCC66;" d="M238.691,136.291l76.8-41.2c1.6-0.8,3.6-0.4,4.8,1.2l41.2,76.8c0.8,1.6,0.4,3.6-1.2,4.8l-77.2,40.8   c-1.6,0.8-3.6,0.4-4.8-1.2l-40.8-76.8C236.691,139.091,237.091,137.091,238.691,136.291"/>
	<path style="fill:#EAAA5E;" d="M292.291,213.891l-44.4-82.4l-9.2,4.8c-1.6,0.8-2.4,2.8-1.2,4.8l41.2,76.4c0.8,1.6,2.8,2.4,4.8,1.2   L292.291,213.891z"/>
	<polygon style="fill:#DDAC57;" points="281.091,134.291 281.891,135.091 283.091,135.891 283.491,134.291 283.491,133.091    284.691,133.891 285.491,134.291 285.891,133.091 285.891,131.891 287.091,132.291 287.891,133.091 288.291,131.891    288.291,130.291 289.491,131.091 290.291,131.891 290.691,130.291 290.691,129.091 291.891,129.891 293.091,130.691    283.091,112.691 271.091,119.091 280.691,137.091 280.691,135.491  "/>
	<g>
		<path style="fill:#E6E6E6;" d="M63.091,311.891h332.4c14.4,0,26,11.6,26,26s-11.6,26-26,26h-332.4c-14.4,0-26-11.6-26-26    S48.691,311.891,63.091,311.891"/>
		<path style="fill:#E6E6E6;" d="M37.091,337.891v-288.4c0-6.8,5.6-12,12-12l0,0c6.8,0,12,5.6,12,12v288.4c0,6.8-5.6,12-12,12l0,0    C42.691,349.891,37.091,344.691,37.091,337.891"/>
	</g>
	<path style="fill:#DDAC57;" d="M54.691,38.291l-37.6-16.8c-6-2.8-13.2,0-16,6s0,13.2,6,16l37.6,16.8c6,2.8,13.2,0,16-6   S60.691,41.091,54.691,38.291"/>
	<path style="fill:#606060;" d="M93.491,324.291c21.2,0,38.4,17.2,38.4,38.4c0,21.2-17.2,38.4-38.4,38.4s-38.4-17.2-38.4-38.4   C54.691,341.891,71.891,324.291,93.491,324.291"/>
	<path style="fill:#DDAC57;" d="M93.491,342.691c11.2,0,20.4,9.2,20.4,20.4c0,11.2-9.2,20.4-20.4,20.4s-20.4-9.2-20.4-20.4   C73.091,351.891,82.291,342.691,93.491,342.691"/>
	<path style="fill:#606060;" d="M366.691,324.291c21.2,0,38.4,17.2,38.4,38.4c0,21.2-17.2,38.4-38.4,38.4   c-21.2,0-38.4-17.2-38.4-38.4C328.291,341.891,345.491,324.291,366.691,324.291"/>
	<path style="fill:#DDAC57;" d="M366.691,342.691c11.2,0,20.4,9.2,20.4,20.4c0,11.2-9.2,20.4-20.4,20.4c-11.2,0-20.4-9.2-20.4-20.4   C346.291,351.891,355.491,342.691,366.691,342.691"/>
</g>
<g>
</g>
<g>
</g>
<g>
</g>
<g>
</g>
<g>
</g>
<g>
</g>
<g>
</g>
<g>
</g>
<g>
</g>
<g>
</g>
<g>
</g>
<g>
</g>
<g>
</g>
<g>
</g>
<g>
</g>
</svg>
