<?xml version="1.0" encoding="iso-8859-1"?>
<!-- Generator: Adobe Illustrator 19.0.0, SVG Export Plug-In . SVG Version: 6.00 Build 0)  -->
<svg xmlns="http://www.w3.org/2000/svg" xmlns:xlink="http://www.w3.org/1999/xlink" version="1.1" id="Capa_1" x="0px" y="0px" viewBox="0 0 311.2 311.2" style="enable-background:new 0 0 311.2 311.2;" xml:space="preserve">
<g>
	<path style="fill:#FFCC66;" d="M11.2,0H300c6.4,0,11.2,5.2,11.2,11.2V300c0,6.4-5.2,11.2-11.2,11.2H11.2C4.8,311.2,0,306,0,300   V11.2C0,4.8,4.8,0,11.2,0"/>
	<path style="fill:#EAAA5E;" d="M45.2,311.2V0h-34C4.8,0,0,5.2,0,11.2V300c0,6.4,5.2,11.2,11.2,11.2H45.2z"/>
	<polygon style="fill:#DDAC57;" points="137.6,60 139.6,64 142,68 144.4,64 146.4,60 148.8,64 151.2,68 153.2,64 155.6,60 158,64    160,68 162.4,64 164.8,60 166.8,64 169.2,68 171.6,64 173.6,60 176,64 178.4,68 178.4,0 132.8,0 132.8,68 135.2,64  "/>
</g>
<g>
</g>
<g>
</g>
<g>
</g>
<g>
</g>
<g>
</g>
<g>
</g>
<g>
</g>
<g>
</g>
<g>
</g>
<g>
</g>
<g>
</g>
<g>
</g>
<g>
</g>
<g>
</g>
<g>
</g>
</svg>
